<svg xmlns="http://www.w3.org/2000/svg" fill="none" viewBox="0 1 1359.58 1392.58">
<path d="M117.079 270.5C-29.7206 188.5 -1.42057 60 31.0794 6L1354.58 15.5V1083C1341.25 1086.83 1276.58 1106.2 1124.58 1153C972.579 1199.8 856.246 1125.83 817.079 1083C790.413 1044.67 733.779 956.8 720.579 912C707.379 867.2 656.746 811.667 633.079 789.5C596.913 758.667 488.779 690 345.579 662C202.379 634 187.015 533 207.079 478C241.079 384.8 169 299.502 117.079 270.5Z" stroke="#FF6F28" stroke-width="10"/>
<path d="M231 121C198.2 95.4 177.333 37 171 11L1356 17.5V1190C1344.5 1204 1290.6 1217 1167 1157C1012.5 1082 1017 1088 885 1072C753 1056 635 974 624 792.5C615.2 647.3 428.333 532.667 336 493.5C321.333 485.5 287.5 460.4 269.5 424C247 378.5 266 336.5 284.5 288C303 239.5 272 153 231 121Z" fill="url(#paint0_linear_444_43)"/>
<path d="M421.13 191.5C452.73 112.7 445.963 42.3333 438.63 17L1355.13 23.5V1260.5C1342.46 1261.17 1295.73 1263.8 1210.13 1269C1124.53 1274.2 1051.13 1161.17 1025.13 1104C1011.3 1081.5 971.63 1037.9 923.63 1043.5C875.63 1049.1 838.5 1043.5 809.13 1024C788.797 1010.5 746.83 958.4 741.63 858C736.43 757.6 698.13 667.167 679.63 634.5C668.463 614.833 630.23 567 566.63 533C487.13 490.5 461.63 448 438.63 420C415.63 392 381.63 290 421.13 191.5Z" fill="url(#paint1_linear_444_43)"/>
<path d="M593 133.5C621.4 95.9 595.167 40.1667 578.5 17L1340.5 20L1354.5 1389C1254.1 1409 1194 1358.67 1176.5 1331C1175.67 1255.83 1134.6 1096.1 977 1058.5C819.4 1020.9 774.667 883.167 772 819C769.667 813.333 768.8 781.4 784 699C803 596 735 469 618 364C501 259 557.5 180.5 593 133.5Z" fill="url(#paint2_linear_444_43)"/>
<defs>
<linearGradient id="paint0_linear_444_43" x1="763.5" y1="11" x2="763.5" y2="1201.78" gradientUnits="userSpaceOnUse">
<stop stop-color="#37C1ED"/>
<stop offset="0.510417" stop-color="#3F52FA"/>
<stop offset="1" stop-color="#F7F651"/>
</linearGradient>
<linearGradient id="paint1_linear_444_43" x1="879.065" y1="17" x2="879.065" y2="1269.17" gradientUnits="userSpaceOnUse">
<stop stop-color="#FBB52F"/>
<stop offset="0.494792" stop-color="#FF6F28"/>
<stop offset="1" stop-color="#F7F651"/>
</linearGradient>
<linearGradient id="paint2_linear_444_43" x1="951.114" y1="17" x2="1463.5" y2="1394" gradientUnits="userSpaceOnUse">
<stop stop-color="#2872FF"/>
<stop offset="0.609375" stop-color="#3F52FA"/>
</linearGradient>
</defs>
</svg>